<svg width="50" height="50" viewBox="0 0 50 50" fill="none" xmlns="http://www.w3.org/2000/svg">
<g clip-path="url(#clip0_0_147)">
<path d="M25 17C25.2652 17 25.5196 16.8946 25.7071 16.7071C25.8946 16.5196 26 16.2652 26 16C26 15.7348 25.8946 15.4804 25.7071 15.2929C25.5196 15.1054 25.2652 15 25 15C24.8022 15 24.6089 14.9413 24.4444 14.8315C24.28 14.7216 24.1518 14.5654 24.0761 14.3827C24.0004 14.2 23.9806 13.9989 24.0192 13.8049C24.0578 13.6109 24.153 13.4327 24.2929 13.2929C24.4327 13.153 24.6109 13.0578 24.8049 13.0192C24.9989 12.9806 25.2 13.0004 25.3827 13.0761C25.5654 13.1518 25.7216 13.28 25.8315 13.4444C25.9414 13.6089 26 13.8022 26 14C26 14.2652 26.1054 14.5196 26.2929 14.7071C26.4804 14.8946 26.7348 15 27 15C27.2652 15 27.5196 14.8946 27.7071 14.7071C27.8946 14.5196 28 14.2652 28 14C28 13.4067 27.8241 12.8266 27.4944 12.3333C27.1648 11.8399 26.6962 11.4554 26.1481 11.2284C25.5999 11.0013 24.9967 10.9419 24.4147 11.0576C23.8328 11.1734 23.2982 11.4591 22.8787 11.8787C22.4591 12.2982 22.1734 12.8328 22.0576 13.4147C21.9419 13.9967 22.0013 14.5999 22.2284 15.148C22.4554 15.6962 22.8399 16.1648 23.3333 16.4944C23.8266 16.824 24.4067 17 25 17Z" fill="white"/>
<path d="M33 37H31V35C31 34.7348 30.8946 34.4804 30.7071 34.2929C30.5196 34.1054 30.2652 34 30 34H28.11L28.9 26H30C30.2652 26 30.5196 25.8946 30.7071 25.7071C30.8946 25.5196 31 25.2652 31 25V23.19C31.0031 22.3437 30.7685 21.5135 30.323 20.794C29.8775 20.0745 29.2389 19.4945 28.48 19.12L27.34 18.55C26.6129 18.1885 25.812 18.0003 25 18C24.7348 18 24.4804 18.1054 24.2929 18.2929C24.1054 18.4804 24 18.7348 24 19C24 19.2652 24.1054 19.5196 24.2929 19.7071C24.4804 19.8946 24.7348 20 25 20C25.5028 20.0021 25.9987 20.1183 26.45 20.34L27.59 20.91C28.0143 21.1207 28.3711 21.4459 28.6203 21.8488C28.8694 22.2517 29.001 22.7163 29 23.19V24H28C27.7512 23.9988 27.5109 24.0903 27.326 24.2567C27.1411 24.4231 27.0249 24.6525 27 24.9L26.1 34H26V23C26 22.7348 25.8946 22.4804 25.7071 22.2929C25.5196 22.1054 25.2652 22 25 22C24.7348 22 24.4804 22.1054 24.2929 22.2929C24.1054 22.4804 24 22.7348 24 23V34H23.9L23 24.9C22.9751 24.6525 22.8589 24.4231 22.674 24.2567C22.4891 24.0903 22.2488 23.9988 22 24H21V23.19C20.9972 22.5281 21.256 21.892 21.72 21.42C21.9083 21.229 22.013 20.9711 22.0112 20.7029C22.0093 20.4348 21.901 20.1783 21.71 19.99C21.519 19.8017 21.2611 19.697 20.9929 19.6988C20.7248 19.7007 20.4683 19.809 20.28 20C19.4527 20.8551 18.9932 22.0002 19 23.19V25C19 25.2652 19.1054 25.5196 19.2929 25.7071C19.4804 25.8946 19.7348 26 20 26H21.1L21.89 34H20C19.7348 34 19.4804 34.1054 19.2929 34.2929C19.1054 34.4804 19 34.7348 19 35V37H17C16.7348 37 16.4804 37.1054 16.2929 37.2929C16.1054 37.4804 16 37.7348 16 38C16 38.2652 16.1054 38.5196 16.2929 38.7071C16.4804 38.8946 16.7348 39 17 39H26C26.2652 39 26.5196 38.8946 26.7071 38.7071C26.8946 38.5196 27 38.2652 27 38C27 37.7348 26.8946 37.4804 26.7071 37.2929C26.5196 37.1054 26.2652 37 26 37H21V36H29V38C29 38.2652 29.1054 38.5196 29.2929 38.7071C29.4804 38.8946 29.7348 39 30 39H33C33.2652 39 33.5196 38.8946 33.7071 38.7071C33.8946 38.5196 34 38.2652 34 38C34 37.7348 33.8946 37.4804 33.7071 37.2929C33.5196 37.1054 33.2652 37 33 37Z" fill="white"/>
</g>
<defs>
<clipPath id="clip0_0_147">
<rect width="50" height="50" fill="white"/>
</clipPath>
</defs>
</svg>
